#!OML:ASF F:\VICON\USERDATA\INSTALL\rory3\rory3.ASF
:FULLY-SPECIFIED
:DEGREES
1228
root 1.03568 14.5682 -0.786485 8.10338 4.38408 -1.17862
lowerback 28.675 0.321766 -1.68013
upperback -4.60423 -0.258793 -0.322695
thorax -20.9628 0.0711988 0.68344
lowerneck -0.786395 -10.2583 -14.8599
upperneck 3.61384 -14.3259 16.9172
head 3.52934 -7.05445 6.87253
rclavicle 5.76476e-015 7.95139e-016
rhumerus -77.1899 29.6112 -82.838
rradius 131.021
rwrist -42.7646
rhand 38.4434 12.0407
rfingers 7.12502
rthumb 61.0928 -0.53886
lclavicle 5.76476e-015 7.95139e-016
lhumerus -64.5523 -43.8801 76.426
lradius 125.804
lwrist 83.8234
lhand 27.0187 43.8142
lfingers 7.12502
lthumb 51.0078 64.4913
rfemur -35.3866 -7.69121 14.1442
rtibia 59.6272
rfoot -25.3204 -5.80166
rtoes -23.3591
lfemur -38.7298 7.15848 -20.0488
ltibia 61.1506
lfoot -21.4508 -9.9432
ltoes -2.19678
1229
root 1.02326 14.5612 -0.790909 7.88573 4.21488 -1.15125
lowerback 28.3705 0.362639 -1.67283
upperback -4.30637 -0.166395 -0.207888
thorax -20.4151 0.111092 0.768566
lowerneck 1.5027 -10.0087 -15.0206
upperneck 1.72616 -14.0673 17.2874
head 2.59366 -7.05571 7.20132
rclavicle 1.88845e-015 1.98785e-015
rhumerus -77.1586 30.2524 -82.9966
rradius 131.071
rwrist -42.7121
rhand 38.3988 12.1376
rfingers 7.12502
rthumb 61.0551 -0.485154
lclavicle 1.88845e-015 1.98785e-015
lhumerus -64.2209 -44.365 76.5796
lradius 125.822
lwrist 83.9834
lhand 26.7648 43.9319
lfingers 7.12502
lthumb 50.7763 64.7372
rfemur -35.2643 -7.55604 14.1219
rtibia 59.7448
rfoot -25.343 -5.74108
rtoes -23.0231
lfemur -38.5105 7.3506 -20.0205
ltibia 61.1932
lfoot -21.4997 -9.95839
ltoes -2.24389
1230
root 1.00986 14.555 -0.794568 7.70134 4.03242 -1.04747
lowerback 28.0315 0.403789 -1.77489
upperback -4.01597 -0.116556 -0.107615
thorax -19.8634 0.144465 0.91655
lowerneck 3.72624 -9.77209 -14.9553
upperneck -0.100722 -13.8111 17.4004
head 1.65731 -7.05022 7.41942
rclavicle -5.91384e-015 -1.07344e-014
rhumerus -77.1019 31.0267 -83.17
rradius 131.083
rwrist -42.6608
rhand 38.336 12.0742
rfingers 7.12502
rthumb 61.0021 -0.609226
lclavicle -5.91384e-015 -1.07344e-014
lhumerus -63.8527 -44.8847 76.6328
lradius 125.814
lwrist 84.0786
lhand 26.6298 43.8366
lfingers 7.12502
lthumb 50.6532 64.7096
rfemur -35.1677 -7.39832 14.0213
rtibia 59.8395
rfoot -25.3379 -5.72109
rtoes -22.9247
lfemur -38.2964 7.50489 -20.0708
ltibia 61.2174
lfoot -21.6252 -9.84791
ltoes -3.08598
1231
root 0.996625 14.5526 -0.797751 7.54097 3.87467 -1.0426
lowerback 27.6946 0.408007 -1.75353
upperback -3.72543 -0.0705107 0.00342458
thorax -19.3185 0.162436 1.00923
lowerneck 5.68753 -9.56452 -14.9112
upperneck -1.60409 -13.5991 17.5145
head 0.870669 -7.04699 7.6233
rclavicle 3.8266e-015 4.17448e-015
rhumerus -77.041 31.8705 -83.3523
rradius 131.066
rwrist -42.5046
rhand 38.6931 11.8105
rfingers 7.12502
rthumb 61.3032 -0.524738
lclavicle 3.8266e-015 4.17448e-015
lhumerus -63.4791 -45.3312 76.5462
lradius 125.84
lwrist 84.1457
lhand 26.3272 43.6752
lfingers 7.12502
lthumb 50.3768 64.6979
rfemur -35.0739 -7.22548 14.0456
rtibia 59.9011
rfoot -25.3333 -5.7938
rtoes -23.1867
lfemur -38.1165 7.63199 -20.0072
ltibia 61.2376
lfoot -21.6978 -9.80071
ltoes -3.51087
1232
root 0.986551 14.5547 -0.799646 7.36843 3.7246 -1.05535
lowerback 27.4094 0.408825 -1.67713
upperback -3.44207 -0.0119486 0.117714
thorax -18.8153 0.180259 1.06934
lowerneck 7.41345 -9.4193 -14.9836
upperneck -2.7971 -13.4864 17.7139
head 0.244553 -7.07823 7.84925
rclavicle -1.49089e-015 -1.39149e-015
rhumerus -77.0752 32.6837 -83.4865
rradius 131.095
rwrist -42.3434
rhand 39.4894 11.3742
rfingers 7.12502
rthumb 61.9705 -0.156327
lclavicle -1.49089e-015 -1.39149e-015
lhumerus -63.1809 -45.6108 76.407
lradius 125.919
lwrist 84.1374
lhand 26.1304 44.1538
lfingers 7.12502
lthumb 50.197 65.2725
rfemur -34.9391 -7.09512 14.0759
rtibia 59.9393
rfoot -25.3141 -5.80178
rtoes -23.1078
lfemur -37.8879 7.75952 -19.9326
ltibia 61.2191
lfoot -21.7386 -9.76147
ltoes -3.53502
1233
root 0.977571 14.5548 -0.801606 7.20913 3.56248 -0.963942
lowerback 27.1967 0.446328 -1.71448
upperback -3.18372 0.0492898 0.211124
thorax -18.3851 0.210497 1.16811
lowerneck 8.63054 -9.42626 -14.9454
upperneck -3.46327 -13.5646 17.7467
head -0.134179 -7.17402 7.95123
rclavicle 8.34896e-015 -1.35174e-014
rhumerus -77.0943 33.5041 -83.4494
rradius 131.138
rwrist -42.3141
rhand 39.7578 11.1527
rfingers 7.12502
rthumb 62.1941 -0.0973056
lclavicle 8.34896e-015 -1.35174e-014
lhumerus -63.0041 -45.8064 76.3105
lradius 126.008
lwrist 83.8874
lhand 26.2228 44.5176
lfingers 7.12502
lthumb 50.2814 65.5914
rfemur -34.8312 -6.98009 13.9762
rtibia 59.9842
rfoot -25.2987 -5.69494
rtoes -22.813
lfemur -37.6538 7.84674 -19.9791
ltibia 61.1698
lfoot -21.7674 -9.68964
ltoes -3.50105
1234
root 0.969129 14.5535 -0.803489 7.09556 3.43523 -0.754585
lowerback 26.9898 0.455707 -1.87803
upperback -2.93638 0.0249097 0.277053
thorax -17.9719 0.214744 1.34109
lowerneck 9.23273 -9.51893 -14.7705
upperneck -3.54882 -13.7312 17.5748
head -0.255118 -7.27849 7.90571
rclavicle -1.70955e-014 -9.14409e-015
rhumerus -76.9237 34.3665 -83.261
rradius 131.121
rwrist -42.3322
rhand 39.5183 11.1333
rfingers 7.12502
rthumb 61.9947 -0.367189
lclavicle -1.70955e-014 -9.14409e-015
lhumerus -62.9508 -45.864 76.1779
lradius 126.113
lwrist 83.5929
lhand 26.1665 44.2926
lfingers 7.12502
lthumb 50.2299 65.3938
rfemur -34.7563 -6.92771 13.7494
rtibia 60.0308
rfoot -25.3708 -5.54118
rtoes -22.6668
lfemur -37.4408 7.84881 -20.1557
ltibia 61.0991
lfoot -21.7276 -9.62791
ltoes -3.09282
1235
root 0.960219 14.5535 -0.804831 7.00941 3.34589 -0.607598
lowerback 26.7812 0.427987 -2.00683
upperback -2.71762 -0.0273833 0.394311
thorax -17.5944 0.205969 1.56237
lowerneck 9.53347 -9.61926 -14.6689
upperneck -3.36858 -13.9073 17.3635
head -0.246618 -7.37092 7.82989
rclavicle 6.33626e-015 1.41137e-014
rhumerus -76.7176 35.2394 -82.9348
rradius 131.155
rwrist -42.3478
rhand 39.1903 11.0685
rfingers 7.12502
rthumb 61.7207 -0.768938
lclavicle 6.33626e-015 1.41137e-014
lhumerus -62.9619 -45.7036 76.0227
lradius 126.242
lwrist 83.4604
lhand 25.8642 44.0559
lfingers 7.12502
lthumb 49.9533 65.3031
rfemur -34.6844 -6.90779 13.6073
rtibia 60.0664
rfoot -25.4385 -5.47881
rtoes -22.6352
lfemur -37.2724 7.82269 -20.2656
ltibia 61.031
lfoot -21.7252 -9.53649
ltoes -3.0822
1236
root 0.950722 14.5554 -0.806246 6.90289 3.22325 -0.66935
lowerback 26.6768 0.413295 -1.92604
upperback -2.57172 0.00898922 0.539711
thorax -17.3653 0.218477 1.66295
lowerneck 9.95939 -9.71152 -14.632
upperneck -3.31784 -14.0785 17.3492
head -0.277194 -7.4726 7.83922
rclavicle 6.95746e-016 -1.5207e-014
rhumerus -76.7068 35.8295 -82.7039
rradius 131.223
rwrist -42.2002
rhand 38.9155 11.0772
rfingers 7.12502
rthumb 61.4902 -1.03726
lclavicle 6.95746e-016 -1.5207e-014
lhumerus -63.0824 -45.5736 75.8906
lradius 126.395
lwrist 83.3623
lhand 25.7142 43.9027
lfingers 7.12502
lthumb 49.8161 65.2215
rfemur -34.5975 -6.77023 13.7119
rtibia 60.08
rfoot -25.4225 -5.59651
rtoes -22.9061
lfemur -37.1121 7.86562 -20.1272
ltibia 60.9716
lfoot -21.7536 -9.57385
ltoes -2.84285
